<svg xmlns="http://www.w3.org/2000/svg" viewBox="0 0 800 450" width="800" height="450">
<defs>
  <style>
    text { font-family: -apple-system, BlinkMacSystemFont, 'Segoe UI', sans-serif; }
  </style>
</defs>
<rect width="800" height="450" fill="#f4f5f7" rx="8"/><rect x="0" y="0" width="180" height="450" fill="#ffffff" rx="0"/><line x1="180" y1="0" x2="180" y2="450" stroke="#e5e7eb" stroke-width="1"/><circle cx="28" cy="67" r="4" fill="#6b7280" opacity="0.5"/><text x="42" y="71" font-size="12" fill="#6b7280" font-weight="400">Overview</text><circle cx="28" cy="103" r="4" fill="#6b7280" opacity="0.5"/><text x="42" y="107" font-size="12" fill="#6b7280" font-weight="400">Store</text><circle cx="28" cy="139" r="4" fill="#6b7280" opacity="0.5"/><text x="42" y="143" font-size="12" fill="#6b7280" font-weight="400">Design</text><circle cx="28" cy="175" r="4" fill="#6b7280" opacity="0.5"/><text x="42" y="179" font-size="12" fill="#6b7280" font-weight="400">Products</text><circle cx="28" cy="211" r="4" fill="#6b7280" opacity="0.5"/><text x="42" y="215" font-size="12" fill="#6b7280" font-weight="400">Collections</text><circle cx="28" cy="247" r="4" fill="#6b7280" opacity="0.5"/><text x="42" y="251" font-size="12" fill="#6b7280" font-weight="400">Orders</text><circle cx="28" cy="283" r="4" fill="#6b7280" opacity="0.5"/><text x="42" y="287" font-size="12" fill="#6b7280" font-weight="400">Discounts</text><circle cx="28" cy="319" r="4" fill="#6b7280" opacity="0.5"/><text x="42" y="323" font-size="12" fill="#6b7280" font-weight="400">Markets</text><circle cx="28" cy="355" r="4" fill="#6b7280" opacity="0.5"/><text x="42" y="359" font-size="12" fill="#6b7280" font-weight="400">Integrations</text><rect x="8" y="376" width="164" height="30" rx="6" fill="#ecfdf5"/><circle cx="28" cy="391" r="4" fill="#10b981" opacity="0.5"/><text x="42" y="395" font-size="12" fill="#10b981" font-weight="600">Settings</text><rect x="180" y="0" width="620" height="44" fill="#ffffff"/><line x1="180" y1="44" x2="800" y2="44" stroke="#e5e7eb" stroke-width="1"/><text x="200" y="27" font-size="11" fill="#10b981">View store ↗</text><text x="710" y="27" font-size="10" fill="#6b7280">you@example.com</text><circle cx="776" cy="22" r="14" fill="#d1fae5"/><text x="776" y="26" font-size="9" fill="#059669" text-anchor="middle" font-weight="600">JD</text><text x="210" y="74" font-size="20" font-weight="700" fill="#1f2937">Account Settings</text><text x="210" y="96" font-size="13" font-weight="600" fill="#1f2937">Profile</text><rect x="210" y="106" width="560" height="76" rx="8" fill="#ffffff" stroke="#e5e7eb" stroke-width="1"/><text x="226" y="132" font-size="10" fill="#6b7280">Name</text><text x="754" y="132" font-size="11" fill="#1f2937" text-anchor="end">John Doe</text><line x1="226" y1="142" x2="754" y2="142" stroke="#f0f0f0" stroke-width="1"/><text x="226" y="164" font-size="10" fill="#6b7280">Email</text><text x="754" y="164" font-size="11" fill="#1f2937" text-anchor="end">you@example.com</text><text x="210" y="204" font-size="13" font-weight="600" fill="#1f2937">Billing</text><rect x="210" y="214" width="560" height="76" rx="8" fill="#ffffff" stroke="#e5e7eb" stroke-width="1"/><text x="226" y="240" font-size="10" fill="#6b7280">Status</text><rect x="706" y="228" width="48" height="18" rx="9" fill="#d1fae5"/><text x="730" y="241" font-size="9" fill="#059669" text-anchor="middle">Active</text><line x1="226" y1="252" x2="754" y2="252" stroke="#f0f0f0" stroke-width="1"/><text x="226" y="272" font-size="10" fill="#6b7280">Plan</text><text x="754" y="272" font-size="11" font-weight="600" fill="#1f2937" text-anchor="end">Pro</text><text x="210" y="314" font-size="13" font-weight="600" fill="#1f2937">Custom Domain</text><text x="210" y="332" font-size="11" font-weight="500" fill="#1f2937">Domain</text><rect x="210" y="338" width="440" height="34" rx="6" fill="#ffffff" stroke="#d1d5db" stroke-width="1"/><text x="220" y="359" font-size="11" fill="#9ca3af">shop.example.com</text><rect x="660" y="338" width="100" height="32" rx="6" fill="#10b981" stroke="#10b981" stroke-width="1"/><text x="710" y="358" font-size="11" fill="#ffffff" text-anchor="middle" font-weight="500">Save Domain</text>
<!-- Annotations -->
<g class="doc-annotations">
<circle cx="90" cy="391" r="16" fill="#ef4444" opacity="0.10"/><circle cx="90" cy="391" r="16" fill="none" stroke="#ef4444" stroke-width="2" stroke-dasharray="4 2"/><g transform="translate(96, 393)"><path d="M0,0 L0,14 L4,10 L7,16 L9,15 L6,9 L11,9 Z" fill="#ef4444" stroke="#fff" stroke-width="0.7"/></g><rect x="110" y="382" width="37.5" height="17" rx="4" fill="#ef4444"/><text x="115" y="394" font-size="9" fill="#fff" font-weight="600">Click</text>
</g>
</svg>
