<svg xmlns="http://www.w3.org/2000/svg" viewBox="0 0 800 450" width="800" height="450">
<defs>
  <style>
    text { font-family: -apple-system, BlinkMacSystemFont, 'Segoe UI', sans-serif; }
  </style>
</defs>
<rect width="800" height="450" fill="#f4f5f7" rx="8"/><rect x="0" y="0" width="180" height="450" fill="#ffffff" rx="0"/><line x1="180" y1="0" x2="180" y2="450" stroke="#e5e7eb" stroke-width="1"/><circle cx="28" cy="67" r="4" fill="#6b7280" opacity="0.5"/><text x="42" y="71" font-size="12" fill="#6b7280" font-weight="400">Overview</text><rect x="8" y="88" width="164" height="30" rx="6" fill="#ecfdf5"/><circle cx="28" cy="103" r="4" fill="#10b981" opacity="0.5"/><text x="42" y="107" font-size="12" fill="#10b981" font-weight="600">Store</text><circle cx="28" cy="139" r="4" fill="#6b7280" opacity="0.5"/><text x="42" y="143" font-size="12" fill="#6b7280" font-weight="400">Design</text><circle cx="28" cy="175" r="4" fill="#6b7280" opacity="0.5"/><text x="42" y="179" font-size="12" fill="#6b7280" font-weight="400">Products</text><circle cx="28" cy="211" r="4" fill="#6b7280" opacity="0.5"/><text x="42" y="215" font-size="12" fill="#6b7280" font-weight="400">Collections</text><circle cx="28" cy="247" r="4" fill="#6b7280" opacity="0.5"/><text x="42" y="251" font-size="12" fill="#6b7280" font-weight="400">Orders</text><circle cx="28" cy="283" r="4" fill="#6b7280" opacity="0.5"/><text x="42" y="287" font-size="12" fill="#6b7280" font-weight="400">Discounts</text><circle cx="28" cy="319" r="4" fill="#6b7280" opacity="0.5"/><text x="42" y="323" font-size="12" fill="#6b7280" font-weight="400">Markets</text><circle cx="28" cy="355" r="4" fill="#6b7280" opacity="0.5"/><text x="42" y="359" font-size="12" fill="#6b7280" font-weight="400">Integrations</text><circle cx="28" cy="391" r="4" fill="#6b7280" opacity="0.5"/><text x="42" y="395" font-size="12" fill="#6b7280" font-weight="400">Settings</text><rect x="180" y="0" width="620" height="44" fill="#ffffff"/><line x1="180" y1="44" x2="800" y2="44" stroke="#e5e7eb" stroke-width="1"/><text x="200" y="27" font-size="11" fill="#10b981">View store ↗</text><text x="710" y="27" font-size="10" fill="#6b7280">you@example.com</text><circle cx="776" cy="22" r="14" fill="#d1fae5"/><text x="776" y="26" font-size="9" fill="#059669" text-anchor="middle" font-weight="600">JD</text><text x="210" y="74" font-size="20" font-weight="700" fill="#1f2937">Store Settings</text><rect x="380" y="56" width="80" height="24" rx="12" fill="#d1fae5" stroke="#10b981" stroke-width="1"/><circle cx="392" cy="68" r="4" fill="#10b981"/><text x="400" y="72" font-size="10" fill="#059669">Published</text><circle cx="218" cy="96" r="6" fill="none" stroke="#6b7280" stroke-width="1"/><text x="230" y="100" font-size="12" font-weight="600" fill="#1f2937">General</text><text x="210" y="118" font-size="11" font-weight="500" fill="#1f2937">Store name</text><rect x="210" y="124" width="560" height="34" rx="6" fill="#ffffff" stroke="#d1d5db" stroke-width="1"/><text x="220" y="145" font-size="11" fill="#1f2937">My Store</text><text x="210" y="172" font-size="11" font-weight="500" fill="#1f2937">Store URL</text><rect x="210" y="178" width="560" height="34" rx="6" fill="#ffffff" stroke="#d1d5db" stroke-width="1"/><text x="220" y="199" font-size="11" fill="#1f2937">biostore.com/ mystore</text><text x="210" y="226" font-size="11" font-weight="500" fill="#1f2937">Description</text><rect x="210" y="232" width="560" height="56" rx="6" fill="#ffffff" stroke="#d1d5db" stroke-width="1"/><text x="220" y="252" font-size="11" fill="#9ca3af">What do you sell?</text><line x1="210" y1="300" x2="770" y2="300" stroke="#f0f0f0" stroke-width="1"/><circle cx="218" cy="318" r="6" fill="none" stroke="#6b7280" stroke-width="1"/><text x="230" y="322" font-size="12" font-weight="600" fill="#1f2937">Currency</text><rect x="210" y="334" width="560" height="34" rx="6" fill="#ffffff" stroke="#d1d5db" stroke-width="1"/><text x="220" y="355" font-size="11" fill="#1f2937">USD — US Dollar</text><text x="754" y="355" font-size="10" fill="#6b7280">▾</text>
<!-- Annotations -->
<g class="doc-annotations">
<rect x="208" y="122" width="564" height="38" fill="none" stroke="#ef4444" stroke-width="2" stroke-dasharray="6 3" rx="8"/>
<rect x="208" y="176" width="564" height="38" fill="none" stroke="#ef4444" stroke-width="2" stroke-dasharray="6 3" rx="8"/>
<rect x="208" y="230" width="564" height="60" fill="none" stroke="#ef4444" stroke-width="2" stroke-dasharray="6 3" rx="8"/>
<rect x="208" y="332" width="564" height="38" fill="none" stroke="#ef4444" stroke-width="2" stroke-dasharray="6 3" rx="8"/>
</g>
</svg>
