<svg xmlns="http://www.w3.org/2000/svg" viewBox="0 0 800 450" width="800" height="450">
<defs>
  <style>
    text { font-family: -apple-system, BlinkMacSystemFont, 'Segoe UI', sans-serif; }
  </style>
</defs>
<rect width="800" height="450" fill="#f4f5f7" rx="8"/><rect x="0" y="0" width="180" height="450" fill="#ffffff" rx="0"/><line x1="180" y1="0" x2="180" y2="450" stroke="#e5e7eb" stroke-width="1"/><circle cx="28" cy="67" r="4" fill="#6b7280" opacity="0.5"/><text x="42" y="71" font-size="12" fill="#6b7280" font-weight="400">Overview</text><circle cx="28" cy="103" r="4" fill="#6b7280" opacity="0.5"/><text x="42" y="107" font-size="12" fill="#6b7280" font-weight="400">Store</text><circle cx="28" cy="139" r="4" fill="#6b7280" opacity="0.5"/><text x="42" y="143" font-size="12" fill="#6b7280" font-weight="400">Design</text><circle cx="28" cy="175" r="4" fill="#6b7280" opacity="0.5"/><text x="42" y="179" font-size="12" fill="#6b7280" font-weight="400">Products</text><circle cx="28" cy="211" r="4" fill="#6b7280" opacity="0.5"/><text x="42" y="215" font-size="12" fill="#6b7280" font-weight="400">Collections</text><circle cx="28" cy="247" r="4" fill="#6b7280" opacity="0.5"/><text x="42" y="251" font-size="12" fill="#6b7280" font-weight="400">Orders</text><rect x="8" y="268" width="164" height="30" rx="6" fill="#ecfdf5"/><circle cx="28" cy="283" r="4" fill="#10b981" opacity="0.5"/><text x="42" y="287" font-size="12" fill="#10b981" font-weight="600">Discounts</text><circle cx="28" cy="319" r="4" fill="#6b7280" opacity="0.5"/><text x="42" y="323" font-size="12" fill="#6b7280" font-weight="400">Markets</text><circle cx="28" cy="355" r="4" fill="#6b7280" opacity="0.5"/><text x="42" y="359" font-size="12" fill="#6b7280" font-weight="400">Integrations</text><circle cx="28" cy="391" r="4" fill="#6b7280" opacity="0.5"/><text x="42" y="395" font-size="12" fill="#6b7280" font-weight="400">Settings</text><rect x="180" y="0" width="620" height="44" fill="#ffffff"/><line x1="180" y1="44" x2="800" y2="44" stroke="#e5e7eb" stroke-width="1"/><text x="200" y="27" font-size="11" fill="#10b981">View store ↗</text><text x="710" y="27" font-size="10" fill="#6b7280">you@example.com</text><circle cx="776" cy="22" r="14" fill="#d1fae5"/><text x="776" y="26" font-size="9" fill="#059669" text-anchor="middle" font-weight="600">JD</text><text x="210" y="74" font-size="20" font-weight="700" fill="#1f2937">New Discount</text><text x="710" y="74" font-size="10" fill="#6b7280">Active</text><rect x="754" y="60" width="40" height="22" rx="11" fill="#10b981"/><circle cx="782" cy="71" r="8" fill="#ffffff"/><text x="210" y="92" font-size="11" font-weight="500" fill="#1f2937">Label</text><rect x="210" y="98" width="560" height="34" rx="6" fill="#ffffff" stroke="#d1d5db" stroke-width="1"/><text x="220" y="119" font-size="11" fill="#9ca3af">e.g. Summer Sale 20%</text><text x="210" y="148" font-size="11" font-weight="500" fill="#1f2937">Code</text><rect x="210" y="154" width="560" height="34" rx="6" fill="#ffffff" stroke="#d1d5db" stroke-width="1"/><text x="220" y="175" font-size="11" fill="#9ca3af">ENTER CODE</text><text x="210" y="204" font-size="11" font-weight="500" fill="#1f2937">Type</text><rect x="210" y="210" width="160" height="34" rx="6" fill="#ffffff" stroke="#d1d5db" stroke-width="1"/><text x="220" y="231" font-size="11" fill="#1f2937">Percentage</text><text x="354" y="231" font-size="10" fill="#6b7280">▾</text><text x="390" y="204" font-size="11" font-weight="500" fill="#1f2937">Value</text><rect x="390" y="210" width="380" height="34" rx="6" fill="#ffffff" stroke="#d1d5db" stroke-width="1"/><text x="400" y="231" font-size="11" fill="#1f2937">0</text><rect x="210" y="262" width="560" height="100" rx="8" fill="#ffffff" stroke="#e5e7eb" stroke-width="1"/><text x="226" y="288" font-size="10" fill="#1f2937">Set start and end dates</text><rect x="738" y="274" width="40" height="22" rx="11" fill="#d1d5db"/><circle cx="750" cy="285" r="8" fill="#ffffff"/><line x1="226" y1="298" x2="754" y2="298" stroke="#f0f0f0" stroke-width="1"/><text x="226" y="318" font-size="10" fill="#1f2937">Limit discount</text><rect x="738" y="306" width="40" height="22" rx="11" fill="#d1d5db"/><circle cx="750" cy="317" r="8" fill="#ffffff"/><line x1="226" y1="330" x2="754" y2="330" stroke="#f0f0f0" stroke-width="1"/><text x="226" y="350" font-size="10" fill="#1f2937">One time usage per user</text><rect x="738" y="338" width="40" height="22" rx="11" fill="#d1d5db"/><circle cx="750" cy="349" r="8" fill="#ffffff"/>
<!-- Annotations -->
<g class="doc-annotations">
<rect x="208" y="96" width="564" height="38" fill="none" stroke="#ef4444" stroke-width="2" stroke-dasharray="6 3" rx="8"/>
<rect x="208" y="152" width="564" height="38" fill="none" stroke="#ef4444" stroke-width="2" stroke-dasharray="6 3" rx="8"/>
<rect x="208" y="208" width="164" height="38" fill="none" stroke="#ef4444" stroke-width="2" stroke-dasharray="6 3" rx="8"/>
<rect x="388" y="208" width="384" height="38" fill="none" stroke="#ef4444" stroke-width="2" stroke-dasharray="6 3" rx="8"/>
</g>
</svg>
