<svg xmlns="http://www.w3.org/2000/svg" viewBox="0 0 800 450" width="800" height="450">
<defs>
  <style>
    text { font-family: -apple-system, BlinkMacSystemFont, 'Segoe UI', sans-serif; }
  </style>
</defs>
<rect width="800" height="450" fill="#f4f5f7" rx="8"/><rect x="0" y="0" width="180" height="450" fill="#ffffff" rx="0"/><line x1="180" y1="0" x2="180" y2="450" stroke="#e5e7eb" stroke-width="1"/><circle cx="28" cy="67" r="4" fill="#6b7280" opacity="0.5"/><text x="42" y="71" font-size="12" fill="#6b7280" font-weight="400">Overview</text><circle cx="28" cy="103" r="4" fill="#6b7280" opacity="0.5"/><text x="42" y="107" font-size="12" fill="#6b7280" font-weight="400">Store</text><rect x="8" y="124" width="164" height="30" rx="6" fill="#ecfdf5"/><circle cx="28" cy="139" r="4" fill="#10b981" opacity="0.5"/><text x="42" y="143" font-size="12" fill="#10b981" font-weight="600">Design</text><circle cx="28" cy="175" r="4" fill="#6b7280" opacity="0.5"/><text x="42" y="179" font-size="12" fill="#6b7280" font-weight="400">Products</text><circle cx="28" cy="211" r="4" fill="#6b7280" opacity="0.5"/><text x="42" y="215" font-size="12" fill="#6b7280" font-weight="400">Collections</text><circle cx="28" cy="247" r="4" fill="#6b7280" opacity="0.5"/><text x="42" y="251" font-size="12" fill="#6b7280" font-weight="400">Orders</text><circle cx="28" cy="283" r="4" fill="#6b7280" opacity="0.5"/><text x="42" y="287" font-size="12" fill="#6b7280" font-weight="400">Discounts</text><circle cx="28" cy="319" r="4" fill="#6b7280" opacity="0.5"/><text x="42" y="323" font-size="12" fill="#6b7280" font-weight="400">Markets</text><circle cx="28" cy="355" r="4" fill="#6b7280" opacity="0.5"/><text x="42" y="359" font-size="12" fill="#6b7280" font-weight="400">Integrations</text><circle cx="28" cy="391" r="4" fill="#6b7280" opacity="0.5"/><text x="42" y="395" font-size="12" fill="#6b7280" font-weight="400">Settings</text><rect x="180" y="0" width="620" height="44" fill="#ffffff"/><line x1="180" y1="44" x2="800" y2="44" stroke="#e5e7eb" stroke-width="1"/><text x="200" y="27" font-size="11" fill="#10b981">View store ↗</text><text x="710" y="27" font-size="10" fill="#6b7280">you@example.com</text><circle cx="776" cy="22" r="14" fill="#d1fae5"/><text x="776" y="26" font-size="9" fill="#059669" text-anchor="middle" font-weight="600">JD</text><text x="210" y="74" font-size="20" font-weight="700" fill="#1f2937">Design</text><rect x="210" y="92" width="140" height="200" rx="8" fill="#ffffff" stroke="#e5e7eb" stroke-width="1"/><text x="226" y="117" font-size="10" fill="#6b7280">Branding</text><rect x="214" y="130" width="132" height="26" rx="4" fill="#ecfdf5"/><text x="226" y="147" font-size="10" fill="#10b981">Colors</text><text x="226" y="177" font-size="10" fill="#6b7280">Typography</text><text x="226" y="207" font-size="10" fill="#6b7280">Layout &amp; Style</text><text x="226" y="237" font-size="10" fill="#6b7280">Checkout</text><text x="226" y="267" font-size="10" fill="#6b7280">Settings</text><text x="364" y="104" font-size="11" font-weight="500" fill="#1f2937">Primary Color</text><rect x="364" y="112" width="26" height="26" rx="13" fill="#10b981" stroke="#1f2937" stroke-width="2"/><rect x="396" y="112" width="26" height="26" rx="13" fill="#3b82f6" stroke="none" stroke-width="0"/><rect x="428" y="112" width="26" height="26" rx="13" fill="#8b5cf6" stroke="none" stroke-width="0"/><rect x="460" y="112" width="26" height="26" rx="13" fill="#ef4444" stroke="none" stroke-width="0"/><rect x="492" y="112" width="26" height="26" rx="13" fill="#f59e0b" stroke="none" stroke-width="0"/><rect x="524" y="112" width="26" height="26" rx="13" fill="#ec4899" stroke="none" stroke-width="0"/><text x="364" y="160" font-size="11" font-weight="500" fill="#1f2937">Accent Color</text><rect x="364" y="168" width="250" height="34" rx="6" fill="#ffffff" stroke="#d1d5db" stroke-width="1"/><text x="374" y="189" font-size="11" fill="#9ca3af">#10b981</text><rect x="630" y="92" width="130" height="200" rx="14" fill="#ffffff" stroke="#e5e7eb" stroke-width="2"/><rect x="634" y="96" width="122" height="40" rx="10" fill="#10b981" opacity="0.15"/><text x="695" y="120" font-size="8" font-weight="600" fill="#059669" text-anchor="middle">My Store</text><rect x="640" y="144" width="50" height="50" rx="4" fill="#f4f5f7"/><rect x="698" y="144" width="50" height="50" rx="4" fill="#f4f5f7"/><text x="644" y="210" font-size="7" fill="#1f2937">Product</text><text x="702" y="210" font-size="7" fill="#1f2937">Product</text><rect x="640" y="216" width="50" height="16" rx="4" fill="#10b981"/><rect x="698" y="216" width="50" height="16" rx="4" fill="#10b981"/>
<!-- Annotations -->
<g class="doc-annotations">
<circle cx="377" cy="125" r="20" fill="#ef4444" opacity="0.10"/><circle cx="377" cy="125" r="20" fill="none" stroke="#ef4444" stroke-width="2" stroke-dasharray="4 2"/><g transform="translate(383, 127)"><path d="M0,0 L0,14 L4,10 L7,16 L9,15 L6,9 L11,9 Z" fill="#ef4444" stroke="#fff" stroke-width="0.7"/></g><rect x="401" y="116" width="76" height="17" rx="4" fill="#ef4444"/><text x="406" y="128" font-size="9" fill="#fff" font-weight="600">Pick a color</text>
</g>
</svg>
