<svg xmlns="http://www.w3.org/2000/svg" viewBox="0 0 800 450" width="800" height="450">
<defs>
  <style>
    text { font-family: -apple-system, BlinkMacSystemFont, 'Segoe UI', sans-serif; }
  </style>
</defs>
<rect width="800" height="450" fill="#f4f5f7" rx="8"/><rect x="0" y="0" width="180" height="450" fill="#ffffff" rx="0"/><line x1="180" y1="0" x2="180" y2="450" stroke="#e5e7eb" stroke-width="1"/><circle cx="28" cy="67" r="4" fill="#6b7280" opacity="0.5"/><text x="42" y="71" font-size="12" fill="#6b7280" font-weight="400">Overview</text><circle cx="28" cy="103" r="4" fill="#6b7280" opacity="0.5"/><text x="42" y="107" font-size="12" fill="#6b7280" font-weight="400">Store</text><circle cx="28" cy="139" r="4" fill="#6b7280" opacity="0.5"/><text x="42" y="143" font-size="12" fill="#6b7280" font-weight="400">Design</text><circle cx="28" cy="175" r="4" fill="#6b7280" opacity="0.5"/><text x="42" y="179" font-size="12" fill="#6b7280" font-weight="400">Products</text><circle cx="28" cy="211" r="4" fill="#6b7280" opacity="0.5"/><text x="42" y="215" font-size="12" fill="#6b7280" font-weight="400">Collections</text><rect x="8" y="232" width="164" height="30" rx="6" fill="#ecfdf5"/><circle cx="28" cy="247" r="4" fill="#10b981" opacity="0.5"/><text x="42" y="251" font-size="12" fill="#10b981" font-weight="600">Orders</text><circle cx="28" cy="283" r="4" fill="#6b7280" opacity="0.5"/><text x="42" y="287" font-size="12" fill="#6b7280" font-weight="400">Discounts</text><circle cx="28" cy="319" r="4" fill="#6b7280" opacity="0.5"/><text x="42" y="323" font-size="12" fill="#6b7280" font-weight="400">Markets</text><circle cx="28" cy="355" r="4" fill="#6b7280" opacity="0.5"/><text x="42" y="359" font-size="12" fill="#6b7280" font-weight="400">Integrations</text><circle cx="28" cy="391" r="4" fill="#6b7280" opacity="0.5"/><text x="42" y="395" font-size="12" fill="#6b7280" font-weight="400">Settings</text><rect x="180" y="0" width="620" height="44" fill="#ffffff"/><line x1="180" y1="44" x2="800" y2="44" stroke="#e5e7eb" stroke-width="1"/><text x="200" y="27" font-size="11" fill="#10b981">View store ↗</text><text x="710" y="27" font-size="10" fill="#6b7280">you@example.com</text><circle cx="776" cy="22" r="14" fill="#d1fae5"/><text x="776" y="26" font-size="9" fill="#059669" text-anchor="middle" font-weight="600">JD</text><text x="210" y="74" font-size="20" font-weight="700" fill="#1f2937">Orders</text><rect x="210" y="90" width="560" height="34" rx="6" fill="#ffffff" stroke="#d1d5db" stroke-width="1"/><text x="222" y="111" font-size="11" fill="#9ca3af">🔍 Search...</text><rect x="210" y="134" width="560" height="30" rx="0" fill="#f4f5f7"/><text x="218" y="153" font-size="10" font-weight="500" fill="#6b7280">#</text><text x="258" y="153" font-size="10" font-weight="500" fill="#6b7280">Customer</text><text x="378" y="153" font-size="10" font-weight="500" fill="#6b7280">Phone</text><text x="478" y="153" font-size="10" font-weight="500" fill="#6b7280">Total</text><text x="558" y="153" font-size="10" font-weight="500" fill="#6b7280">Status</text><text x="648" y="153" font-size="10" font-weight="500" fill="#6b7280">Date</text><line x1="210" y1="194" x2="770" y2="194" stroke="#f0f0f0" stroke-width="1"/><text x="218" y="184" font-size="10" fill="#1f2937">#39</text><text x="258" y="184" font-size="10" fill="#1f2937">Sarah M.</text><text x="378" y="184" font-size="10" fill="#1f2937">+1 555-0123</text><text x="478" y="184" font-size="10" fill="#1f2937">20.00</text><rect x="556" y="172" width="57.5" height="18" rx="9" fill="#eff6ff"/><text x="564" y="184" font-size="9" fill="#3b82f6">Shipped</text><text x="648" y="184" font-size="10" fill="#1f2937">5d ago</text><line x1="210" y1="226" x2="770" y2="226" stroke="#f0f0f0" stroke-width="1"/><text x="218" y="216" font-size="10" fill="#1f2937">#38</text><text x="258" y="216" font-size="10" fill="#1f2937">Alex K.</text><text x="378" y="216" font-size="10" fill="#1f2937">+1 555-0456</text><text x="478" y="216" font-size="10" fill="#1f2937">21.85</text><rect x="556" y="204" width="57.5" height="18" rx="9" fill="#fef3c7"/><text x="564" y="216" font-size="9" fill="#92400e">Pending</text><text x="648" y="216" font-size="10" fill="#1f2937">7d ago</text><line x1="210" y1="258" x2="770" y2="258" stroke="#f0f0f0" stroke-width="1"/><text x="218" y="248" font-size="10" fill="#1f2937">#37</text><text x="258" y="248" font-size="10" fill="#1f2937">Omar B.</text><text x="378" y="248" font-size="10" fill="#1f2937">+1 555-0789</text><text x="478" y="248" font-size="10" fill="#1f2937">20.00</text><rect x="556" y="236" width="57.5" height="18" rx="9" fill="#fef3c7"/><text x="564" y="248" font-size="9" fill="#92400e">Pending</text><text x="648" y="248" font-size="10" fill="#1f2937">8d ago</text><line x1="210" y1="290" x2="770" y2="290" stroke="#f0f0f0" stroke-width="1"/><text x="218" y="280" font-size="10" fill="#1f2937">#36</text><text x="258" y="280" font-size="10" fill="#1f2937">Lisa P.</text><text x="378" y="280" font-size="10" fill="#1f2937">+1 555-0321</text><text x="478" y="280" font-size="10" fill="#1f2937">23.00</text><rect x="556" y="268" width="57.5" height="18" rx="9" fill="#fef3c7"/><text x="564" y="280" font-size="9" fill="#92400e">Pending</text><text x="648" y="280" font-size="10" fill="#1f2937">12d ago</text>
<!-- Annotations -->
<g class="doc-annotations">
<rect x="210" y="164" width="560" height="30" fill="#ef4444" opacity="0.08" rx="4"/>
<circle cx="490" cy="180" r="16" fill="#ef4444" opacity="0.10"/><circle cx="490" cy="180" r="16" fill="none" stroke="#ef4444" stroke-width="2" stroke-dasharray="4 2"/><g transform="translate(496, 182)"><path d="M0,0 L0,14 L4,10 L7,16 L9,15 L6,9 L11,9 Z" fill="#ef4444" stroke="#fff" stroke-width="0.7"/></g><rect x="510" y="171" width="70.5" height="17" rx="4" fill="#ef4444"/><text x="515" y="183" font-size="9" fill="#fff" font-weight="600">Click a row</text>
</g>
</svg>
