<svg xmlns="http://www.w3.org/2000/svg" viewBox="0 0 800 450" width="800" height="450">
<defs>
  <style>
    text { font-family: -apple-system, BlinkMacSystemFont, 'Segoe UI', sans-serif; }
  </style>
</defs>
<rect width="800" height="450" fill="#f4f5f7" rx="8"/><rect width="800" height="450" fill="#f4f5f7"/><rect x="240" y="30" width="320" height="390" rx="8" fill="#ffffff" stroke="#e5e7eb" stroke-width="1"/><text x="400" y="94" font-size="16" font-weight="700" fill="#1f2937" text-anchor="middle">Create your account</text><text x="400" y="112" font-size="10" fill="#6b7280" text-anchor="middle">Start selling in minutes</text><text x="264" y="136" font-size="11" font-weight="500" fill="#1f2937">Full name</text><rect x="264" y="142" width="272" height="32" rx="6" fill="#ffffff" stroke="#d1d5db" stroke-width="1"/><text x="274" y="162" font-size="11" fill="#9ca3af">John Doe</text><text x="264" y="186" font-size="11" font-weight="500" fill="#1f2937">Email</text><rect x="264" y="192" width="272" height="32" rx="6" fill="#ffffff" stroke="#d1d5db" stroke-width="1"/><text x="274" y="212" font-size="11" fill="#9ca3af">you@example.com</text><text x="264" y="236" font-size="11" font-weight="500" fill="#1f2937">Password</text><rect x="264" y="242" width="272" height="32" rx="6" fill="#ffffff" stroke="#d1d5db" stroke-width="1"/><text x="274" y="262" font-size="11" fill="#9ca3af">••••••••</text><rect x="264" y="292" width="272" height="32" rx="6" fill="#10b981" stroke="#10b981" stroke-width="1"/><text x="400" y="312" font-size="11" fill="#ffffff" text-anchor="middle" font-weight="500">Get Started</text><line x1="264" y1="340" x2="536" y2="340" stroke="#f0f0f0" stroke-width="1"/><rect x="264" y="352" width="272" height="32" rx="6" fill="#ffffff" stroke="#d1d5db" stroke-width="1"/><text x="400" y="372" font-size="11" fill="#1f2937" text-anchor="middle" font-weight="500">Sign up with Google</text><text x="400" y="406" font-size="10" fill="#6b7280" text-anchor="middle">Already have an account? <tspan fill="#10b981">Sign in</tspan></text>
<!-- Annotations -->
<g class="doc-annotations">
<circle cx="250" cy="158" r="10" fill="#ef4444"/><text x="250" y="162" font-size="10" fill="#fff" text-anchor="middle" font-weight="700">1</text>
<rect x="262" y="140" width="276" height="36" fill="none" stroke="#ef4444" stroke-width="2" stroke-dasharray="6 3" rx="8"/>
<circle cx="250" cy="208" r="10" fill="#ef4444"/><text x="250" y="212" font-size="10" fill="#fff" text-anchor="middle" font-weight="700">2</text>
<rect x="262" y="190" width="276" height="36" fill="none" stroke="#ef4444" stroke-width="2" stroke-dasharray="6 3" rx="8"/>
<circle cx="250" cy="258" r="10" fill="#ef4444"/><text x="250" y="262" font-size="10" fill="#fff" text-anchor="middle" font-weight="700">3</text>
<rect x="262" y="240" width="276" height="36" fill="none" stroke="#ef4444" stroke-width="2" stroke-dasharray="6 3" rx="8"/>
<circle cx="250" cy="308" r="10" fill="#ef4444"/><text x="250" y="312" font-size="10" fill="#fff" text-anchor="middle" font-weight="700">4</text>
<circle cx="400" cy="308" r="16" fill="#ef4444" opacity="0.10"/><circle cx="400" cy="308" r="16" fill="none" stroke="#ef4444" stroke-width="2" stroke-dasharray="4 2"/><g transform="translate(406, 310)"><path d="M0,0 L0,14 L4,10 L7,16 L9,15 L6,9 L11,9 Z" fill="#ef4444" stroke="#fff" stroke-width="0.7"/></g><rect x="420" y="299" width="37.5" height="17" rx="4" fill="#ef4444"/><text x="425" y="311" font-size="9" fill="#fff" font-weight="600">Click</text>
</g>
</svg>
