<svg xmlns="http://www.w3.org/2000/svg" viewBox="0 0 800 450" width="800" height="450">
<defs>
  <style>
    text { font-family: -apple-system, BlinkMacSystemFont, 'Segoe UI', sans-serif; }
  </style>
</defs>
<rect width="800" height="450" fill="#f4f5f7" rx="8"/><rect x="0" y="0" width="180" height="450" fill="#ffffff" rx="0"/><line x1="180" y1="0" x2="180" y2="450" stroke="#e5e7eb" stroke-width="1"/><rect x="8" y="52" width="164" height="30" rx="6" fill="#ecfdf5"/><circle cx="28" cy="67" r="4" fill="#10b981" opacity="0.5"/><text x="42" y="71" font-size="12" fill="#10b981" font-weight="600">Overview</text><circle cx="28" cy="103" r="4" fill="#6b7280" opacity="0.5"/><text x="42" y="107" font-size="12" fill="#6b7280" font-weight="400">Store</text><circle cx="28" cy="139" r="4" fill="#6b7280" opacity="0.5"/><text x="42" y="143" font-size="12" fill="#6b7280" font-weight="400">Design</text><circle cx="28" cy="175" r="4" fill="#6b7280" opacity="0.5"/><text x="42" y="179" font-size="12" fill="#6b7280" font-weight="400">Products</text><circle cx="28" cy="211" r="4" fill="#6b7280" opacity="0.5"/><text x="42" y="215" font-size="12" fill="#6b7280" font-weight="400">Collections</text><circle cx="28" cy="247" r="4" fill="#6b7280" opacity="0.5"/><text x="42" y="251" font-size="12" fill="#6b7280" font-weight="400">Orders</text><circle cx="28" cy="283" r="4" fill="#6b7280" opacity="0.5"/><text x="42" y="287" font-size="12" fill="#6b7280" font-weight="400">Discounts</text><circle cx="28" cy="319" r="4" fill="#6b7280" opacity="0.5"/><text x="42" y="323" font-size="12" fill="#6b7280" font-weight="400">Markets</text><circle cx="28" cy="355" r="4" fill="#6b7280" opacity="0.5"/><text x="42" y="359" font-size="12" fill="#6b7280" font-weight="400">Integrations</text><circle cx="28" cy="391" r="4" fill="#6b7280" opacity="0.5"/><text x="42" y="395" font-size="12" fill="#6b7280" font-weight="400">Settings</text><rect x="180" y="0" width="620" height="44" fill="#ffffff"/><line x1="180" y1="44" x2="800" y2="44" stroke="#e5e7eb" stroke-width="1"/><text x="200" y="27" font-size="11" fill="#10b981">View store ↗</text><text x="710" y="27" font-size="10" fill="#6b7280">you@example.com</text><circle cx="776" cy="22" r="14" fill="#d1fae5"/><text x="776" y="26" font-size="9" fill="#059669" text-anchor="middle" font-weight="600">JD</text><text x="210" y="74" font-size="20" font-weight="700" fill="#1f2937">Overview</text><rect x="210" y="92" width="180" height="72" rx="8" fill="#ffffff" stroke="#e5e7eb" stroke-width="1"/><text x="224" y="114" font-size="10" fill="#6b7280">Products</text><text x="224" y="144" font-size="22" font-weight="700" fill="#1f2937">3</text><rect x="400" y="92" width="180" height="72" rx="8" fill="#ffffff" stroke="#e5e7eb" stroke-width="1"/><text x="414" y="114" font-size="10" fill="#6b7280">Orders</text><text x="414" y="144" font-size="22" font-weight="700" fill="#1f2937">25</text><rect x="590" y="92" width="180" height="72" rx="8" fill="#ffffff" stroke="#e5e7eb" stroke-width="1"/><text x="604" y="114" font-size="10" fill="#6b7280">Revenue</text><text x="604" y="144" font-size="22" font-weight="700" fill="#1f2937">1,331.85</text><text x="210" y="190" font-size="14" font-weight="600" fill="#1f2937">Analytics</text><text x="210" y="206" font-size="10" fill="#6b7280">Here's what's happening with your store.</text><rect x="210" y="218" width="180" height="90" rx="8" fill="#ffffff" stroke="#e5e7eb" stroke-width="1"/><text x="222" y="236" font-size="9" fill="#6b7280">Visitors</text><text x="222" y="258" font-size="16" font-weight="700" fill="#1f2937">337</text><rect x="222" y="284.17585409800336" width="18" height="13.824145901996655" rx="2" fill="#d1fae5"/><rect x="248" y="284.54566486754084" width="18" height="13.454335132459192" rx="2" fill="#d1fae5"/><rect x="274" y="271.72994226792144" width="18" height="26.27005773207858" rx="2" fill="#d1fae5"/><rect x="300" y="275.4092579263419" width="18" height="22.59074207365806" rx="2" fill="#d1fae5"/><rect x="326" y="278.9126751798764" width="18" height="19.087324820123648" rx="2" fill="#d1fae5"/><rect x="352" y="281.89288351626953" width="18" height="16.107116483730437" rx="2" fill="#d1fae5"/><rect x="400" y="218" width="180" height="90" rx="8" fill="#ffffff" stroke="#e5e7eb" stroke-width="1"/><text x="412" y="236" font-size="9" fill="#6b7280">Orders</text><text x="412" y="258" font-size="16" font-weight="700" fill="#1f2937">25</text><rect x="412" y="276.8785614744829" width="18" height="21.1214385255171" rx="2" fill="#d1fae5"/><rect x="438" y="277.8011464537408" width="18" height="20.198853546259222" rx="2" fill="#d1fae5"/><rect x="464" y="280.6743637953699" width="18" height="17.32563620463006" rx="2" fill="#d1fae5"/><rect x="490" y="283.79421871359114" width="18" height="14.205781286408856" rx="2" fill="#d1fae5"/><rect x="516" y="284.59711214650434" width="18" height="13.402887853495663" rx="2" fill="#d1fae5"/><rect x="542" y="277.80963664212624" width="18" height="20.19036335787375" rx="2" fill="#d1fae5"/><rect x="590" y="218" width="180" height="90" rx="8" fill="#ffffff" stroke="#e5e7eb" stroke-width="1"/><text x="602" y="236" font-size="9" fill="#6b7280">Sales</text><text x="602" y="258" font-size="16" font-weight="700" fill="#1f2937">1,331</text><rect x="602" y="280.4459654187118" width="18" height="17.554034581288196" rx="2" fill="#d1fae5"/><rect x="628" y="287.86800366593894" width="18" height="10.131996334061046" rx="2" fill="#d1fae5"/><rect x="654" y="288.8258456576771" width="18" height="9.174154342322854" rx="2" fill="#d1fae5"/><rect x="680" y="285.61932189405303" width="18" height="12.380678105946995" rx="2" fill="#d1fae5"/><rect x="706" y="283.26105168692357" width="18" height="14.738948313076431" rx="2" fill="#d1fae5"/><rect x="732" y="278.94515351385303" width="18" height="19.054846486146964" rx="2" fill="#d1fae5"/>
<!-- Annotations -->
<g class="doc-annotations">
<rect x="204" y="56" width="576" height="268" fill="none" stroke="#10b981" stroke-width="2" stroke-dasharray="8 4" rx="8" opacity="0.5"/>
<rect x="438" y="374" width="124" height="22" rx="6" fill="#10b981"/>
<text x="500" y="389" font-size="10" fill="#fff" text-anchor="middle" font-weight="600">Your dashboard</text>
</g>
</svg>
