<svg xmlns="http://www.w3.org/2000/svg" viewBox="0 0 800 450" width="800" height="450">
<defs>
  <style>
    text { font-family: -apple-system, BlinkMacSystemFont, 'Segoe UI', sans-serif; }
  </style>
</defs>
<rect width="800" height="450" fill="#f4f5f7" rx="8"/><rect width="800" height="450" fill="#f4f5f7"/><rect x="240" y="40" width="320" height="370" rx="8" fill="#ffffff" stroke="#e5e7eb" stroke-width="1"/><text x="400" y="110" font-size="16" font-weight="700" fill="#1f2937" text-anchor="middle">Welcome back</text><text x="400" y="128" font-size="10" fill="#6b7280" text-anchor="middle">Sign in to your account</text><text x="264" y="155" font-size="11" font-weight="500" fill="#1f2937">Email</text><rect x="264" y="160" width="272" height="34" rx="6" fill="#ffffff" stroke="#d1d5db" stroke-width="1"/><text x="274" y="181" font-size="11" fill="#9ca3af">you@example.com</text><text x="264" y="210" font-size="11" font-weight="500" fill="#1f2937">Password</text><rect x="264" y="215" width="272" height="34" rx="6" fill="#ffffff" stroke="#d1d5db" stroke-width="1"/><text x="274" y="236" font-size="11" fill="#9ca3af">••••••••</text><rect x="264" y="268" width="272" height="32" rx="6" fill="#10b981" stroke="#10b981" stroke-width="1"/><text x="400" y="288" font-size="11" fill="#ffffff" text-anchor="middle" font-weight="500">Sign in</text><line x1="264" y1="318" x2="536" y2="318" stroke="#f0f0f0" stroke-width="1"/><text x="400" y="314" font-size="9" fill="#6b7280" text-anchor="middle">or</text><rect x="264" y="330" width="272" height="32" rx="6" fill="#ffffff" stroke="#d1d5db" stroke-width="1"/><text x="400" y="350" font-size="11" fill="#1f2937" text-anchor="middle" font-weight="500">Sign in with Google</text><text x="400" y="386" font-size="10" fill="#6b7280" text-anchor="middle">Don't have an account? <tspan fill="#10b981">Sign up</tspan></text>
<!-- Annotations -->
<g class="doc-annotations">
<circle cx="430" cy="386" r="16" fill="#ef4444" opacity="0.10"/><circle cx="430" cy="386" r="16" fill="none" stroke="#ef4444" stroke-width="2" stroke-dasharray="4 2"/><g transform="translate(436, 388)"><path d="M0,0 L0,14 L4,10 L7,16 L9,15 L6,9 L11,9 Z" fill="#ef4444" stroke="#fff" stroke-width="0.7"/></g><rect x="450" y="377" width="37.5" height="17" rx="4" fill="#ef4444"/><text x="455" y="389" font-size="9" fill="#fff" font-weight="600">Click</text>
</g>
</svg>
