<svg xmlns="http://www.w3.org/2000/svg" viewBox="0 0 800 450" width="800" height="450">
<defs>
  <style>
    text { font-family: -apple-system, BlinkMacSystemFont, 'Segoe UI', sans-serif; }
  </style>
</defs>
<rect width="800" height="450" fill="#f4f5f7" rx="8"/><rect x="0" y="0" width="180" height="450" fill="#ffffff" rx="0"/><line x1="180" y1="0" x2="180" y2="450" stroke="#e5e7eb" stroke-width="1"/><circle cx="28" cy="67" r="4" fill="#6b7280" opacity="0.5"/><text x="42" y="71" font-size="12" fill="#6b7280" font-weight="400">Overview</text><circle cx="28" cy="103" r="4" fill="#6b7280" opacity="0.5"/><text x="42" y="107" font-size="12" fill="#6b7280" font-weight="400">Store</text><circle cx="28" cy="139" r="4" fill="#6b7280" opacity="0.5"/><text x="42" y="143" font-size="12" fill="#6b7280" font-weight="400">Design</text><circle cx="28" cy="175" r="4" fill="#6b7280" opacity="0.5"/><text x="42" y="179" font-size="12" fill="#6b7280" font-weight="400">Products</text><circle cx="28" cy="211" r="4" fill="#6b7280" opacity="0.5"/><text x="42" y="215" font-size="12" fill="#6b7280" font-weight="400">Collections</text><circle cx="28" cy="247" r="4" fill="#6b7280" opacity="0.5"/><text x="42" y="251" font-size="12" fill="#6b7280" font-weight="400">Orders</text><rect x="8" y="268" width="164" height="30" rx="6" fill="#ecfdf5"/><circle cx="28" cy="283" r="4" fill="#10b981" opacity="0.5"/><text x="42" y="287" font-size="12" fill="#10b981" font-weight="600">Shipping</text><circle cx="28" cy="319" r="4" fill="#6b7280" opacity="0.5"/><text x="42" y="323" font-size="12" fill="#6b7280" font-weight="400">Discounts</text><circle cx="28" cy="355" r="4" fill="#6b7280" opacity="0.5"/><text x="42" y="359" font-size="12" fill="#6b7280" font-weight="400">Markets</text><circle cx="28" cy="391" r="4" fill="#6b7280" opacity="0.5"/><text x="42" y="395" font-size="12" fill="#6b7280" font-weight="400">Integrations</text><circle cx="28" cy="427" r="4" fill="#6b7280" opacity="0.5"/><text x="42" y="431" font-size="12" fill="#6b7280" font-weight="400">Settings</text><rect x="180" y="0" width="620" height="44" fill="#ffffff"/><line x1="180" y1="44" x2="800" y2="44" stroke="#e5e7eb" stroke-width="1"/><text x="200" y="27" font-size="11" fill="#10b981">View store ↗</text><text x="710" y="27" font-size="10" fill="#6b7280">you@example.com</text><circle cx="776" cy="22" r="14" fill="#d1fae5"/><text x="776" y="26" font-size="9" fill="#059669" text-anchor="middle" font-weight="600">JD</text><text x="210" y="80" font-size="20" font-weight="700" fill="#1f2937">Shipping</text><text x="210" y="100" font-size="12" fill="#6b7280">Configure delivery fees by country and city.</text><rect x="640" y="62" width="120" height="32" rx="6" fill="#10b981"/><text x="670" y="82" font-size="11" fill="#ffffff" font-weight="600">+ Add Zone</text>
<!-- Empty state -->
<rect x="210" y="130" width="560" height="260" fill="#ffffff" rx="8" stroke="#e5e7eb" stroke-width="1"/>
<text x="490" y="240" font-size="14" fill="#6b7280" text-anchor="middle">No shipping zones yet</text>
<text x="490" y="262" font-size="11" fill="#9ca3af" text-anchor="middle">Add a shipping zone to start configuring delivery fees.</text>
<rect x="430" y="278" width="120" height="30" rx="6" fill="#ffffff" stroke="#10b981" stroke-width="1.5"/><text x="445" y="297" font-size="11" fill="#10b981" font-weight="500">Create first zone</text>
<!-- Annotations -->
<g class="doc-annotations">
<circle cx="90" cy="283" r="16" fill="#ef4444" opacity="0.10"/><circle cx="90" cy="283" r="16" fill="none" stroke="#ef4444" stroke-width="2" stroke-dasharray="4 2"/><g transform="translate(96, 285)"><path d="M0,0 L0,14 L4,10 L7,16 L9,15 L6,9 L11,9 Z" fill="#ef4444" stroke="#fff" stroke-width="0.7"/></g><rect x="110" y="274" width="37.5" height="17" rx="4" fill="#ef4444"/><text x="115" y="286" font-size="9" fill="#fff" font-weight="600">Click</text>
</g>
</svg>