<svg xmlns="http://www.w3.org/2000/svg" viewBox="0 0 800 450" width="800" height="450">
<defs>
  <style>
    text { font-family: -apple-system, BlinkMacSystemFont, 'Segoe UI', sans-serif; }
  </style>
</defs>
<rect width="800" height="450" fill="#f4f5f7" rx="8"/><rect x="0" y="0" width="180" height="450" fill="#ffffff" rx="0"/><line x1="180" y1="0" x2="180" y2="450" stroke="#e5e7eb" stroke-width="1"/><circle cx="28" cy="67" r="4" fill="#6b7280" opacity="0.5"/><text x="42" y="71" font-size="12" fill="#6b7280" font-weight="400">Overview</text><circle cx="28" cy="103" r="4" fill="#6b7280" opacity="0.5"/><text x="42" y="107" font-size="12" fill="#6b7280" font-weight="400">Store</text><circle cx="28" cy="139" r="4" fill="#6b7280" opacity="0.5"/><text x="42" y="143" font-size="12" fill="#6b7280" font-weight="400">Design</text><circle cx="28" cy="175" r="4" fill="#6b7280" opacity="0.5"/><text x="42" y="179" font-size="12" fill="#6b7280" font-weight="400">Products</text><circle cx="28" cy="211" r="4" fill="#6b7280" opacity="0.5"/><text x="42" y="215" font-size="12" fill="#6b7280" font-weight="400">Collections</text><circle cx="28" cy="247" r="4" fill="#6b7280" opacity="0.5"/><text x="42" y="251" font-size="12" fill="#6b7280" font-weight="400">Orders</text><circle cx="28" cy="283" r="4" fill="#6b7280" opacity="0.5"/><text x="42" y="287" font-size="12" fill="#6b7280" font-weight="400">Discounts</text><rect x="8" y="304" width="164" height="30" rx="6" fill="#ecfdf5"/><circle cx="28" cy="319" r="4" fill="#10b981" opacity="0.5"/><text x="42" y="323" font-size="12" fill="#10b981" font-weight="600">Markets</text><circle cx="28" cy="355" r="4" fill="#6b7280" opacity="0.5"/><text x="42" y="359" font-size="12" fill="#6b7280" font-weight="400">Integrations</text><circle cx="28" cy="391" r="4" fill="#6b7280" opacity="0.5"/><text x="42" y="395" font-size="12" fill="#6b7280" font-weight="400">Settings</text><rect x="180" y="0" width="620" height="44" fill="#ffffff"/><line x1="180" y1="44" x2="800" y2="44" stroke="#e5e7eb" stroke-width="1"/><text x="200" y="27" font-size="11" fill="#10b981">View store ↗</text><text x="710" y="27" font-size="10" fill="#6b7280">you@example.com</text><circle cx="776" cy="22" r="14" fill="#d1fae5"/><text x="776" y="26" font-size="9" fill="#059669" text-anchor="middle" font-weight="600">JD</text><text x="210" y="74" font-size="20" font-weight="700" fill="#1f2937">Create a new market</text><rect x="660" y="56" width="110" height="32" rx="6" fill="#10b981" stroke="#10b981" stroke-width="1"/><text x="715" y="76" font-size="11" fill="#ffffff" text-anchor="middle" font-weight="500">Create Market</text><text x="210" y="92" font-size="11" font-weight="500" fill="#1f2937">Pricing mode</text><rect x="210" y="100" width="272" height="46" rx="8" fill="#ffffff" stroke="#e5e7eb" stroke-width="1"/><text x="222" y="120" font-size="11" font-weight="600" fill="#1f2937">Auto</text><text x="222" y="134" font-size="9" fill="#6b7280">Apply a % adjustment</text><rect x="210" y="98" width="272" height="48" rx="8" fill="none" stroke="#10b981" stroke-width="2"/><rect x="494" y="100" width="272" height="46" rx="8" fill="#ffffff" stroke="#e5e7eb" stroke-width="1"/><text x="506" y="120" font-size="11" font-weight="600" fill="#1f2937">Fixed</text><text x="506" y="134" font-size="9" fill="#6b7280">Custom prices per product</text><text x="210" y="166" font-size="11" font-weight="500" fill="#1f2937">Price adjustment</text><rect x="210" y="172" width="80" height="34" rx="6" fill="#ffffff" stroke="#d1d5db" stroke-width="1"/><text x="220" y="193" font-size="11" fill="#9ca3af">0</text><text x="298" y="194" font-size="11" fill="#6b7280">%</text><text x="210" y="222" font-size="11" font-weight="500" fill="#1f2937">Default market</text><rect x="714" y="212" width="40" height="22" rx="11" fill="#d1d5db"/><circle cx="726" cy="223" r="8" fill="#ffffff"/><text x="210" y="260" font-size="11" font-weight="500" fill="#1f2937">Active</text><rect x="714" y="250" width="40" height="22" rx="11" fill="#10b981"/><circle cx="742" cy="261" r="8" fill="#ffffff"/><rect x="210" y="292" width="120" height="32" rx="6" fill="#10b981" stroke="#10b981" stroke-width="1"/><text x="270" y="312" font-size="11" fill="#ffffff" text-anchor="middle" font-weight="500">Create Market</text>
<!-- Annotations -->
<g class="doc-annotations">
<circle cx="197" cy="308" r="10" fill="#ef4444"/><text x="197" y="312" font-size="10" fill="#fff" text-anchor="middle" font-weight="700">1</text>
<circle cx="270" cy="308" r="16" fill="#ef4444" opacity="0.10"/><circle cx="270" cy="308" r="16" fill="none" stroke="#ef4444" stroke-width="2" stroke-dasharray="4 2"/><g transform="translate(276, 310)"><path d="M0,0 L0,14 L4,10 L7,16 L9,15 L6,9 L11,9 Z" fill="#ef4444" stroke="#fff" stroke-width="0.7"/></g><rect x="290" y="299" width="37.5" height="17" rx="4" fill="#ef4444"/><text x="295" y="311" font-size="9" fill="#fff" font-weight="600">Click</text>
<circle cx="700" cy="261" r="10" fill="#ef4444"/><text x="700" y="265" font-size="10" fill="#fff" text-anchor="middle" font-weight="700">2</text>
<circle cx="734" cy="261" r="16" fill="#ef4444" opacity="0.10"/><circle cx="734" cy="261" r="16" fill="none" stroke="#ef4444" stroke-width="2" stroke-dasharray="4 2"/><g transform="translate(740, 263)"><path d="M0,0 L0,14 L4,10 L7,16 L9,15 L6,9 L11,9 Z" fill="#ef4444" stroke="#fff" stroke-width="0.7"/></g><rect x="754" y="252" width="43" height="17" rx="4" fill="#ef4444"/><text x="759" y="264" font-size="9" fill="#fff" font-weight="600">Toggle</text>
</g>
</svg>
