<svg xmlns="http://www.w3.org/2000/svg" viewBox="0 0 800 450" width="800" height="450">
<defs>
  <style>
    text { font-family: -apple-system, BlinkMacSystemFont, 'Segoe UI', sans-serif; }
  </style>
</defs>
<rect width="800" height="450" fill="#f4f5f7" rx="8"/><rect x="0" y="0" width="180" height="450" fill="#ffffff" rx="0"/><line x1="180" y1="0" x2="180" y2="450" stroke="#e5e7eb" stroke-width="1"/><circle cx="28" cy="67" r="4" fill="#6b7280" opacity="0.5"/><text x="42" y="71" font-size="12" fill="#6b7280" font-weight="400">Overview</text><circle cx="28" cy="103" r="4" fill="#6b7280" opacity="0.5"/><text x="42" y="107" font-size="12" fill="#6b7280" font-weight="400">Store</text><circle cx="28" cy="139" r="4" fill="#6b7280" opacity="0.5"/><text x="42" y="143" font-size="12" fill="#6b7280" font-weight="400">Design</text><circle cx="28" cy="175" r="4" fill="#6b7280" opacity="0.5"/><text x="42" y="179" font-size="12" fill="#6b7280" font-weight="400">Products</text><circle cx="28" cy="211" r="4" fill="#6b7280" opacity="0.5"/><text x="42" y="215" font-size="12" fill="#6b7280" font-weight="400">Collections</text><circle cx="28" cy="247" r="4" fill="#6b7280" opacity="0.5"/><text x="42" y="251" font-size="12" fill="#6b7280" font-weight="400">Orders</text><circle cx="28" cy="283" r="4" fill="#6b7280" opacity="0.5"/><text x="42" y="287" font-size="12" fill="#6b7280" font-weight="400">Discounts</text><rect x="8" y="304" width="164" height="30" rx="6" fill="#ecfdf5"/><circle cx="28" cy="319" r="4" fill="#10b981" opacity="0.5"/><text x="42" y="323" font-size="12" fill="#10b981" font-weight="600">Markets</text><circle cx="28" cy="355" r="4" fill="#6b7280" opacity="0.5"/><text x="42" y="359" font-size="12" fill="#6b7280" font-weight="400">Integrations</text><circle cx="28" cy="391" r="4" fill="#6b7280" opacity="0.5"/><text x="42" y="395" font-size="12" fill="#6b7280" font-weight="400">Settings</text><rect x="180" y="0" width="620" height="44" fill="#ffffff"/><line x1="180" y1="44" x2="800" y2="44" stroke="#e5e7eb" stroke-width="1"/><text x="200" y="27" font-size="11" fill="#10b981">View store ↗</text><text x="710" y="27" font-size="10" fill="#6b7280">you@example.com</text><circle cx="776" cy="22" r="14" fill="#d1fae5"/><text x="776" y="26" font-size="9" fill="#059669" text-anchor="middle" font-weight="600">JD</text><text x="210" y="74" font-size="20" font-weight="700" fill="#1f2937">Create a new market</text><rect x="660" y="56" width="110" height="32" rx="6" fill="#10b981" stroke="#10b981" stroke-width="1"/><text x="715" y="76" font-size="11" fill="#ffffff" text-anchor="middle" font-weight="500">Create Market</text><text x="210" y="92" font-size="11" font-weight="500" fill="#1f2937">Market name</text><rect x="210" y="100" width="560" height="34" rx="6" fill="#ffffff" stroke="#d1d5db" stroke-width="1"/><text x="220" y="121" font-size="11" fill="#9ca3af">e.g. Morocco, Europe, Gulf...</text><text x="210" y="148" font-size="11" font-weight="500" fill="#1f2937">Slug</text><rect x="210" y="156" width="560" height="34" rx="6" fill="#ffffff" stroke="#d1d5db" stroke-width="1"/><text x="220" y="177" font-size="11" fill="#9ca3af">auto-generated</text><text x="210" y="206" font-size="11" font-weight="500" fill="#1f2937">Countries</text><rect x="210" y="214" width="560" height="34" rx="6" fill="#ffffff" stroke="#d1d5db" stroke-width="1"/><text x="220" y="235" font-size="11" fill="#1f2937">Select countries...</text><text x="754" y="235" font-size="10" fill="#6b7280">▾</text><text x="210" y="264" font-size="11" font-weight="500" fill="#1f2937">Currency</text><rect x="210" y="272" width="560" height="34" rx="6" fill="#ffffff" stroke="#d1d5db" stroke-width="1"/><text x="220" y="293" font-size="11" fill="#1f2937">Select currency</text><text x="754" y="293" font-size="10" fill="#6b7280">▾</text>
<!-- Annotations -->
<g class="doc-annotations">
<rect x="208" y="98" width="564" height="38" fill="none" stroke="#ef4444" stroke-width="2" stroke-dasharray="6 3" rx="8"/>
<rect x="208" y="154" width="564" height="38" fill="none" stroke="#ef4444" stroke-width="2" stroke-dasharray="6 3" rx="8"/>
<rect x="208" y="212" width="564" height="38" fill="none" stroke="#ef4444" stroke-width="2" stroke-dasharray="6 3" rx="8"/>
<rect x="208" y="270" width="564" height="38" fill="none" stroke="#ef4444" stroke-width="2" stroke-dasharray="6 3" rx="8"/>
</g>
</svg>
