<svg xmlns="http://www.w3.org/2000/svg" viewBox="0 0 800 450" width="800" height="450">
<defs>
  <style>
    text { font-family: -apple-system, BlinkMacSystemFont, 'Segoe UI', sans-serif; }
  </style>
</defs>
<rect width="800" height="450" fill="#f4f5f7" rx="8"/><rect x="0" y="0" width="180" height="450" fill="#ffffff" rx="0"/><line x1="180" y1="0" x2="180" y2="450" stroke="#e5e7eb" stroke-width="1"/><circle cx="28" cy="67" r="4" fill="#6b7280" opacity="0.5"/><text x="42" y="71" font-size="12" fill="#6b7280" font-weight="400">Overview</text><circle cx="28" cy="103" r="4" fill="#6b7280" opacity="0.5"/><text x="42" y="107" font-size="12" fill="#6b7280" font-weight="400">Store</text><circle cx="28" cy="139" r="4" fill="#6b7280" opacity="0.5"/><text x="42" y="143" font-size="12" fill="#6b7280" font-weight="400">Design</text><circle cx="28" cy="175" r="4" fill="#6b7280" opacity="0.5"/><text x="42" y="179" font-size="12" fill="#6b7280" font-weight="400">Products</text><circle cx="28" cy="211" r="4" fill="#6b7280" opacity="0.5"/><text x="42" y="215" font-size="12" fill="#6b7280" font-weight="400">Collections</text><circle cx="28" cy="247" r="4" fill="#6b7280" opacity="0.5"/><text x="42" y="251" font-size="12" fill="#6b7280" font-weight="400">Orders</text><circle cx="28" cy="283" r="4" fill="#6b7280" opacity="0.5"/><text x="42" y="287" font-size="12" fill="#6b7280" font-weight="400">Discounts</text><rect x="8" y="304" width="164" height="30" rx="6" fill="#ecfdf5"/><circle cx="28" cy="319" r="4" fill="#10b981" opacity="0.5"/><text x="42" y="323" font-size="12" fill="#10b981" font-weight="600">Markets</text><circle cx="28" cy="355" r="4" fill="#6b7280" opacity="0.5"/><text x="42" y="359" font-size="12" fill="#6b7280" font-weight="400">Integrations</text><circle cx="28" cy="391" r="4" fill="#6b7280" opacity="0.5"/><text x="42" y="395" font-size="12" fill="#6b7280" font-weight="400">Settings</text><rect x="180" y="0" width="620" height="44" fill="#ffffff"/><line x1="180" y1="44" x2="800" y2="44" stroke="#e5e7eb" stroke-width="1"/><text x="200" y="27" font-size="11" fill="#10b981">View store ↗</text><text x="710" y="27" font-size="10" fill="#6b7280">you@example.com</text><circle cx="776" cy="22" r="14" fill="#d1fae5"/><text x="776" y="26" font-size="9" fill="#059669" text-anchor="middle" font-weight="600">JD</text><text x="210" y="74" font-size="20" font-weight="700" fill="#1f2937">Market Prices — Europe</text><rect x="210" y="92" width="140" height="32" rx="6" fill="#ffffff" stroke="#d1d5db" stroke-width="1"/><text x="280" y="112" font-size="11" fill="#1f2937" text-anchor="middle" font-weight="500">Copy all from base</text><rect x="360" y="92" width="100" height="32" rx="6" fill="#10b981" stroke="#10b981" stroke-width="1"/><text x="410" y="112" font-size="11" fill="#ffffff" text-anchor="middle" font-weight="500">Save Prices</text><rect x="210" y="136" width="560" height="30" rx="0" fill="#f4f5f7"/><text x="218" y="155" font-size="10" font-weight="500" fill="#6b7280">Product</text><text x="418" y="155" font-size="10" font-weight="500" fill="#6b7280">Base Price</text><text x="518" y="155" font-size="10" font-weight="500" fill="#6b7280">Market Price</text><text x="638" y="155" font-size="10" font-weight="500" fill="#6b7280">Compare at</text><line x1="210" y1="196" x2="770" y2="196" stroke="#f0f0f0" stroke-width="1"/><text x="218" y="186" font-size="10" fill="#1f2937">Sample Product</text><text x="418" y="186" font-size="10" fill="#1f2937">99.00 MAD</text><text x="518" y="186" font-size="10" fill="#1f2937"></text><text x="638" y="186" font-size="10" fill="#1f2937"></text><rect x="510" y="172" width="100" height="28" rx="6" fill="#ffffff" stroke="#d1d5db" stroke-width="1"/><text x="520" y="190" font-size="11" fill="#9ca3af">0.00 EUR</text><line x1="210" y1="230" x2="770" y2="230" stroke="#f0f0f0" stroke-width="1"/><text x="218" y="220" font-size="10" fill="#1f2937">Another Item</text><text x="418" y="220" font-size="10" fill="#1f2937">149.00 MAD</text><text x="518" y="220" font-size="10" fill="#1f2937"></text><text x="638" y="220" font-size="10" fill="#1f2937"></text><rect x="510" y="206" width="100" height="28" rx="6" fill="#ffffff" stroke="#d1d5db" stroke-width="1"/><text x="520" y="224" font-size="11" fill="#9ca3af">0.00 EUR</text>
<!-- Annotations -->
<g class="doc-annotations">
<rect x="508" y="170" width="104" height="32" fill="none" stroke="#ef4444" stroke-width="2" stroke-dasharray="6 3" rx="8"/>
<rect x="508" y="204" width="104" height="32" fill="none" stroke="#ef4444" stroke-width="2" stroke-dasharray="6 3" rx="8"/>
<circle cx="410" cy="108" r="16" fill="#ef4444" opacity="0.10"/><circle cx="410" cy="108" r="16" fill="none" stroke="#ef4444" stroke-width="2" stroke-dasharray="4 2"/><g transform="translate(416, 110)"><path d="M0,0 L0,14 L4,10 L7,16 L9,15 L6,9 L11,9 Z" fill="#ef4444" stroke="#fff" stroke-width="0.7"/></g><rect x="430" y="99" width="32" height="17" rx="4" fill="#ef4444"/><text x="435" y="111" font-size="9" fill="#fff" font-weight="600">Save</text>
</g>
</svg>
