<svg xmlns="http://www.w3.org/2000/svg" viewBox="0 0 800 450" width="800" height="450">
<defs>
  <style>
    text { font-family: -apple-system, BlinkMacSystemFont, 'Segoe UI', sans-serif; }
  </style>
</defs>
<rect width="800" height="450" fill="#f4f5f7" rx="8"/><rect x="0" y="0" width="180" height="450" fill="#ffffff" rx="0"/><line x1="180" y1="0" x2="180" y2="450" stroke="#e5e7eb" stroke-width="1"/><circle cx="28" cy="67" r="4" fill="#6b7280" opacity="0.5"/><text x="42" y="71" font-size="12" fill="#6b7280" font-weight="400">Overview</text><circle cx="28" cy="103" r="4" fill="#6b7280" opacity="0.5"/><text x="42" y="107" font-size="12" fill="#6b7280" font-weight="400">Store</text><circle cx="28" cy="139" r="4" fill="#6b7280" opacity="0.5"/><text x="42" y="143" font-size="12" fill="#6b7280" font-weight="400">Design</text><circle cx="28" cy="175" r="4" fill="#6b7280" opacity="0.5"/><text x="42" y="179" font-size="12" fill="#6b7280" font-weight="400">Products</text><circle cx="28" cy="211" r="4" fill="#6b7280" opacity="0.5"/><text x="42" y="215" font-size="12" fill="#6b7280" font-weight="400">Collections</text><circle cx="28" cy="247" r="4" fill="#6b7280" opacity="0.5"/><text x="42" y="251" font-size="12" fill="#6b7280" font-weight="400">Orders</text><circle cx="28" cy="283" r="4" fill="#6b7280" opacity="0.5"/><text x="42" y="287" font-size="12" fill="#6b7280" font-weight="400">Discounts</text><rect x="8" y="304" width="164" height="30" rx="6" fill="#ecfdf5"/><circle cx="28" cy="319" r="4" fill="#10b981" opacity="0.5"/><text x="42" y="323" font-size="12" fill="#10b981" font-weight="600">Markets</text><circle cx="28" cy="355" r="4" fill="#6b7280" opacity="0.5"/><text x="42" y="359" font-size="12" fill="#6b7280" font-weight="400">Integrations</text><circle cx="28" cy="391" r="4" fill="#6b7280" opacity="0.5"/><text x="42" y="395" font-size="12" fill="#6b7280" font-weight="400">Settings</text><rect x="180" y="0" width="620" height="44" fill="#ffffff"/><line x1="180" y1="44" x2="800" y2="44" stroke="#e5e7eb" stroke-width="1"/><text x="200" y="27" font-size="11" fill="#10b981">View store ↗</text><text x="710" y="27" font-size="10" fill="#6b7280">you@example.com</text><circle cx="776" cy="22" r="14" fill="#d1fae5"/><text x="776" y="26" font-size="9" fill="#059669" text-anchor="middle" font-weight="600">JD</text><text x="210" y="74" font-size="20" font-weight="700" fill="#1f2937">Product Availability — Europe</text><text x="210" y="96" font-size="10" fill="#6b7280">Toggle products on or off for this market.</text><rect x="210" y="112" width="560" height="36" rx="8" fill="#ffffff" stroke="#e5e7eb" stroke-width="1"/><text x="226" y="134" font-size="11" fill="#1f2937">Sample Product</text><rect x="714" y="119" width="40" height="22" rx="11" fill="#10b981"/><circle cx="742" cy="130" r="8" fill="#ffffff"/><rect x="210" y="154" width="560" height="36" rx="8" fill="#ffffff" stroke="#e5e7eb" stroke-width="1"/><text x="226" y="176" font-size="11" fill="#1f2937">Another Item</text><rect x="714" y="161" width="40" height="22" rx="11" fill="#10b981"/><circle cx="742" cy="172" r="8" fill="#ffffff"/><rect x="210" y="196" width="560" height="36" rx="8" fill="#ffffff" stroke="#e5e7eb" stroke-width="1"/><text x="226" y="218" font-size="11" fill="#1f2937">New Arrival</text><rect x="714" y="203" width="40" height="22" rx="11" fill="#10b981"/><circle cx="742" cy="214" r="8" fill="#ffffff"/><rect x="210" y="238" width="560" height="36" rx="8" fill="#ffffff" stroke="#e5e7eb" stroke-width="1"/><text x="226" y="260" font-size="11" fill="#1f2937">Summer Dress</text><rect x="714" y="245" width="40" height="22" rx="11" fill="#d1d5db"/><circle cx="726" cy="256" r="8" fill="#ffffff"/><rect x="210" y="280" width="560" height="36" rx="8" fill="#ffffff" stroke="#e5e7eb" stroke-width="1"/><text x="226" y="302" font-size="11" fill="#1f2937">Backpack</text><rect x="714" y="287" width="40" height="22" rx="11" fill="#d1d5db"/><circle cx="726" cy="298" r="8" fill="#ffffff"/>
<!-- Annotations -->
<g class="doc-annotations">
<circle cx="734" cy="130" r="14" fill="#ef4444" opacity="0.10"/><circle cx="734" cy="130" r="14" fill="none" stroke="#ef4444" stroke-width="2" stroke-dasharray="4 2"/><g transform="translate(740, 132)"><path d="M0,0 L0,14 L4,10 L7,16 L9,15 L6,9 L11,9 Z" fill="#ef4444" stroke="#fff" stroke-width="0.7"/></g><rect x="752" y="121" width="43" height="17" rx="4" fill="#ef4444"/><text x="757" y="133" font-size="9" fill="#fff" font-weight="600">Toggle</text>
<circle cx="734" cy="172" r="14" fill="#ef4444" opacity="0.10"/><circle cx="734" cy="172" r="14" fill="none" stroke="#ef4444" stroke-width="2" stroke-dasharray="4 2"/><g transform="translate(740, 174)"><path d="M0,0 L0,14 L4,10 L7,16 L9,15 L6,9 L11,9 Z" fill="#ef4444" stroke="#fff" stroke-width="0.7"/></g><rect x="752" y="163" width="43" height="17" rx="4" fill="#ef4444"/><text x="757" y="175" font-size="9" fill="#fff" font-weight="600">Toggle</text>
<circle cx="726" cy="256" r="14" fill="#ef4444" opacity="0.10"/><circle cx="726" cy="256" r="14" fill="none" stroke="#ef4444" stroke-width="2" stroke-dasharray="4 2"/><g transform="translate(732, 258)"><path d="M0,0 L0,14 L4,10 L7,16 L9,15 L6,9 L11,9 Z" fill="#ef4444" stroke="#fff" stroke-width="0.7"/></g><rect x="744" y="247" width="43" height="17" rx="4" fill="#ef4444"/><text x="749" y="259" font-size="9" fill="#fff" font-weight="600">Toggle</text>
</g>
</svg>
